{
    "asset" : {
        "generator" : "Khronos glTF Blender I/O v1.7.33",
        "version" : "2.0"
    },
    "scene" : 0,
    "scenes" : [
        {
            "name" : "Scene",
            "nodes" : [
                0
            ]
        }
    ],
    "nodes" : [
        {
            "mesh" : 0,
            "name" : "Torus.001",
            "rotation" : [
                0,
                0,
                -0.248320072889328,
                0.9686780571937561
            ]
        }
    ],
    "materials" : [
        {
            "doubleSided" : true,
            "name" : "Material",
            "pbrMetallicRoughness" : {
                "baseColorFactor" : [
                    0,
                    0.02402251586318016,
                    0.8000000715255737,
                    1
                ],
                "metallicFactor" : 0,
                "roughnessFactor" : 0.4000000059604645
            }
        }
    ],
    "meshes" : [
        {
            "name" : "Torus.001",
            "primitives" : [
                {
                    "attributes" : {
                        "POSITION" : 0,
                        "NORMAL" : 1,
                        "TEXCOORD_0" : 2
                    },
                    "indices" : 3,
                    "material" : 0
                }
            ]
        }
    ],
    "accessors" : [
        {
            "bufferView" : 0,
            "componentType" : 5126,
            "count" : 84,
            "max" : [
                2.8899998664855957,
                0.24817721545696259,
                2.7485530376434326
            ],
            "min" : [
                -2.338059663772583,
                -0.24817721545696259,
                -2.7485530376434326
            ],
            "type" : "VEC3"
        },
        {
            "bufferView" : 1,
            "componentType" : 5126,
            "count" : 84,
            "type" : "VEC3"
        },
        {
            "bufferView" : 2,
            "componentType" : 5126,
            "count" : 84,
            "type" : "VEC2"
        },
        {
            "bufferView" : 3,
            "componentType" : 5123,
            "count" : 390,
            "type" : "SCALAR"
        }
    ],
    "bufferViews" : [
        {
            "buffer" : 0,
            "byteLength" : 1008,
            "byteOffset" : 0
        },
        {
            "buffer" : 0,
            "byteLength" : 1008,
            "byteOffset" : 1008
        },
        {
            "buffer" : 0,
            "byteLength" : 672,
            "byteOffset" : 2016
        },
        {
            "buffer" : 0,
            "byteLength" : 780,
            "byteOffset" : 2688
        }
    ],
    "buffers" : [
        {
            "byteLength" : 3468,
            "uri" : "data:application/octet-stream;base64,"
        }
    ]
}
