{
    "asset" : {
        "generator" : "Khronos glTF Blender I/O v1.7.33",
        "version" : "2.0"
    },
    "scene" : 0,
    "scenes" : [
        {
            "name" : "Scene",
            "nodes" : [
                0
            ]
        }
    ],
    "nodes" : [
        {
            "mesh" : 0,
            "name" : "Icosphere"
        }
    ],
    "materials" : [
        {
            "doubleSided" : true,
            "name" : "Material.001",
            "pbrMetallicRoughness" : {
                "baseColorFactor" : [
                    0,
                    0.24080297350883484,
                    0.8000000715255737,
                    1
                ],
                "metallicFactor" : 0,
                "roughnessFactor" : 0.5
            }
        }
    ],
    "meshes" : [
        {
            "name" : "Icosphere",
            "primitives" : [
                {
                    "attributes" : {
                        "POSITION" : 0,
                        "NORMAL" : 1,
                        "TEXCOORD_0" : 2
                    },
                    "indices" : 3,
                    "material" : 0
                }
            ]
        }
    ],
    "accessors" : [
        {
            "bufferView" : 0,
            "componentType" : 5126,
            "count" : 303,
            "max" : [
                1.469544768333435,
                1.4931113719940186,
                1.493110179901123
            ],
            "min" : [
                -1.469544768333435,
                -1.4931113719940186,
                -1.493110179901123
            ],
            "type" : "VEC3"
        },
        {
            "bufferView" : 1,
            "componentType" : 5126,
            "count" : 303,
            "type" : "VEC3"
        },
        {
            "bufferView" : 2,
            "componentType" : 5126,
            "count" : 303,
            "type" : "VEC2"
        },
        {
            "bufferView" : 3,
            "componentType" : 5123,
            "count" : 1680,
            "type" : "SCALAR"
        }
    ],
    "bufferViews" : [
        {
            "buffer" : 0,
            "byteLength" : 3636,
            "byteOffset" : 0
        },
        {
            "buffer" : 0,
            "byteLength" : 3636,
            "byteOffset" : 3636
        },
        {
            "buffer" : 0,
            "byteLength" : 2424,
            "byteOffset" : 7272
        },
        {
            "buffer" : 0,
            "byteLength" : 3360,
            "byteOffset" : 9696
        }
    ],
    "buffers" : [
        {
            "byteLength" : 13056,
            "uri" : "data:application/octet-stream;base64,"
        }
    ]
}
