{
    "asset" : {
        "generator" : "Khronos glTF Blender I/O v1.7.33",
        "version" : "2.0"
    },
    "scene" : 0,
    "scenes" : [
        {
            "name" : "Scene",
            "nodes" : [
                0
            ]
        }
    ],
    "nodes" : [
        {
            "mesh" : 0,
            "name" : "Cube"
        }
    ],
    "materials" : [
        {
            "doubleSided" : true,
            "name" : "Material.001",
            "pbrMetallicRoughness" : {
                "baseColorFactor" : [
                    0,
                    0.38320478796958923,
                    0.8000000715255737,
                    1
                ],
                "metallicFactor" : 0,
                "roughnessFactor" : 0.5
            }
        }
    ],
    "meshes" : [
        {
            "name" : "Cube.001",
            "primitives" : [
                {
                    "attributes" : {
                        "POSITION" : 0,
                        "NORMAL" : 1,
                        "TEXCOORD_0" : 2
                    },
                    "indices" : 3,
                    "material" : 0
                }
            ]
        }
    ],
    "accessors" : [
        {
            "bufferView" : 0,
            "componentType" : 5126,
            "count" : 449,
            "max" : [
                0.8990654945373535,
                3.545144557952881,
                0.8990654945373535
            ],
            "min" : [
                -0.8990655541419983,
                -0.8627874851226807,
                -0.8990654945373535
            ],
            "type" : "VEC3"
        },
        {
            "bufferView" : 1,
            "componentType" : 5126,
            "count" : 449,
            "type" : "VEC3"
        },
        {
            "bufferView" : 2,
            "componentType" : 5126,
            "count" : 449,
            "type" : "VEC2"
        },
        {
            "bufferView" : 3,
            "componentType" : 5123,
            "count" : 2112,
            "type" : "SCALAR"
        }
    ],
    "bufferViews" : [
        {
            "buffer" : 0,
            "byteLength" : 5388,
            "byteOffset" : 0
        },
        {
            "buffer" : 0,
            "byteLength" : 5388,
            "byteOffset" : 5388
        },
        {
            "buffer" : 0,
            "byteLength" : 3592,
            "byteOffset" : 10776
        },
        {
            "buffer" : 0,
            "byteLength" : 4224,
            "byteOffset" : 14368
        }
    ],
    "buffers" : [
        {
            "byteLength" : 18592,
            "uri" : "data:application/octet-stream;base64,"
        }
    ]
}
