{
    "asset" : {
        "generator" : "Khronos glTF Blender I/O v1.7.33",
        "version" : "2.0"
    },
    "scene" : 0,
    "scenes" : [
        {
            "name" : "Scene",
            "nodes" : [
                0
            ]
        }
    ],
    "nodes" : [
        {
            "mesh" : 0,
            "name" : "Cube.003",
            "rotation" : [
                0,
                0.8366929888725281,
                0,
                -0.5476721525192261
            ],
            "scale" : [
                0.27195072174072266,
                0.27195072174072266,
                0.27195072174072266
            ],
            "translation" : [
                0.4802243709564209,
                1.9005430936813354,
                -0.6562051177024841
            ]
        }
    ],
    "materials" : [
        {
            "doubleSided" : true,
            "name" : "Material.001",
            "pbrMetallicRoughness" : {
                "baseColorFactor" : [
                    0,
                    0.38320478796958923,
                    0.8000000715255737,
                    1
                ],
                "metallicFactor" : 0,
                "roughnessFactor" : 0.5
            }
        }
    ],
    "meshes" : [
        {
            "name" : "Cube.004",
            "primitives" : [
                {
                    "attributes" : {
                        "POSITION" : 0,
                        "NORMAL" : 1,
                        "TEXCOORD_0" : 2
                    },
                    "indices" : 3,
                    "material" : 0
                }
            ]
        }
    ],
    "accessors" : [
        {
            "bufferView" : 0,
            "componentType" : 5126,
            "count" : 1347,
            "max" : [
                7.679409980773926,
                3.545144557952881,
                6.3463134765625
            ],
            "min" : [
                -0.8990655541419983,
                -8.584446907043457,
                -3.06009578704834
            ],
            "type" : "VEC3"
        },
        {
            "bufferView" : 1,
            "componentType" : 5126,
            "count" : 1347,
            "type" : "VEC3"
        },
        {
            "bufferView" : 2,
            "componentType" : 5126,
            "count" : 1347,
            "type" : "VEC2"
        },
        {
            "bufferView" : 3,
            "componentType" : 5123,
            "count" : 6336,
            "type" : "SCALAR"
        }
    ],
    "bufferViews" : [
        {
            "buffer" : 0,
            "byteLength" : 16164,
            "byteOffset" : 0
        },
        {
            "buffer" : 0,
            "byteLength" : 16164,
            "byteOffset" : 16164
        },
        {
            "buffer" : 0,
            "byteLength" : 10776,
            "byteOffset" : 32328
        },
        {
            "buffer" : 0,
            "byteLength" : 12672,
            "byteOffset" : 43104
        }
    ],
    "buffers" : [
        {
            "byteLength" : 55776,
            "uri" : "data:application/octet-stream;base64,"
        }
    ]
}
